<?xml version="1.0" encoding="UTF-8"?> <svg xmlns="http://www.w3.org/2000/svg" width="754" height="180" viewBox="0 0 754 180" fill="none"> <g clip-path="url(#clip0_352_485)"> <path d="M140.089 53.3385V59.0276C140.089 71.8271 140.089 90.6719 171.023 90.6719C180.267 90.6719 189.512 89.6057 198.401 87.1161V74.6719H194.489L180.979 78.2281H174.933C154.312 78.2281 154.312 78.2281 154.312 58.3167V54.7604C154.312 34.8495 154.312 34.8495 174.933 34.8495H180.979L194.133 38.0495H198.045V25.2495C189.156 22.7601 179.911 21.6948 170.667 21.6948C140.089 21.6948 140.089 40.5388 140.089 53.3385Z" fill="#F3F4F6"></path> <path d="M263.467 57.25C263.467 77.8724 263.467 77.8724 243.911 77.8724C224.711 77.8724 224.355 77.8724 224.355 57.25V55.1161C224.355 34.4935 224.355 34.4935 243.911 34.4935C263.112 34.4935 263.467 34.4935 263.467 55.1161V57.25ZM247.112 21.6948H240.355C209.779 21.6948 209.779 42.3161 209.779 53.3385V59.0276C209.779 70.0495 209.779 90.6719 240.355 90.6719H247.112C277.688 90.6719 277.688 70.0495 277.688 59.0276V53.3385C277.688 42.3161 277.688 21.6948 247.112 21.6948Z" fill="#F3F4F6"></path> <path d="M334.221 74.3164C331.735 66.4935 330.667 63.6497 316.088 23.4719H292.623V88.8945H305.779V35.5612H307.912C309.333 39.8265 311.467 45.5172 327.112 88.8945H341.688C357.688 45.8719 359.467 40.8945 360.888 35.5612H363.021V88.8945H376.179V23.4719H352.712C339.555 58.3164 336.355 66.8503 334.221 74.3164Z" fill="#F3F4F6"></path> <path d="M424.533 59.3825H406.401V35.2052H424.533C436.979 35.2052 436.979 35.2052 436.979 47.294C436.979 59.3825 436.979 59.3825 424.533 59.3825ZM417.779 23.4719H393.245V88.8945H406.401V70.7601H417.779C436.979 70.7601 451.2 70.7601 451.2 46.9388C451.2 23.4719 436.979 23.4719 417.779 23.4719Z" fill="#F3F4F6"></path> <path d="M478.221 62.5831C482.488 51.2055 486.401 40.1839 487.821 35.5612H494.933C496.355 40.1839 502.401 56.5388 504.533 62.5831H478.221ZM479.645 23.4719L455.112 84.2721V88.8945H467.912L473.956 73.6055H508.088L514.133 88.8945H526.933V84.2721L502.401 23.1159L479.645 23.4719Z" fill="#F3F4F6"></path> <path d="M528.354 35.2052H552.888V88.8945H566.401V35.2052H590.578V23.4719H528.354V35.2052Z" fill="#F3F4F6"></path> <path d="M617.245 23.4719H604.088V88.8945H617.245V23.4719Z" fill="#F3F4F6"></path> <path d="M670.579 77.5169H648.888V61.1601H670.933C679.467 61.1601 679.821 65.7825 679.821 69.694C679.467 74.3164 679.113 77.5169 670.579 77.5169ZM648.533 35.9159H670.221C674.133 35.9159 674.845 38.0492 674.845 42.3159C674.845 46.5831 674.488 49.4268 670.221 49.4268H648.533V35.9159ZM682.667 52.9831C685.867 50.4935 687.645 46.5831 687.645 42.3159C687.645 30.2279 680.888 24.1825 673.068 23.4719H648.888H635.735V88.8945H675.2C679.467 88.8945 694.4 85.3383 694.045 69.3383C694.045 62.2279 689.421 55.4711 682.667 52.9831Z" fill="#F3F4F6"></path> <path d="M719.645 77.1601V23.4719H706.488V88.8945H753.421V77.1601H719.645Z" fill="#F3F4F6"></path> <path d="M72.5333 0.0055542H65.7776C32.3557 0.0055542 32.3557 24.8949 32.3557 33.0722V34.8509V40.5389C32.3557 43.3829 32.7114 46.5834 33.0666 49.4272C34.8437 59.7386 42.6672 68.2725 52.9776 70.4053C52.9776 64.361 52.9776 56.5392 51.9109 55.1162C50.8437 53.6944 50.1328 52.2725 49.7776 50.8506C49.4224 45.8722 49.0666 40.5389 49.0666 35.5616V34.8509C49.0666 14.9389 49.0666 14.5829 69.3338 14.5829C89.2442 14.5829 89.6 14.5829 89.6 34.8509V37.3389C89.6 54.0496 89.6 56.8949 77.8666 57.6058C78.5776 60.4496 78.5776 63.6501 78.5776 66.4938V71.8271C106.311 68.9834 106.311 46.5834 106.311 39.1162V33.0722C105.955 24.8949 105.955 0.0055542 72.5333 0.0055542Z" fill="#056BE4"></path> <path d="M73.9552 76.4495V66.4948C73.9552 62.9391 73.6 59.3828 72.889 55.8281C71.1109 46.2281 63.6448 38.4055 54.0448 36.2721C54.0448 39.1161 54.0448 43.0281 54.0448 45.8721C53.689 48.0052 54.4 50.138 55.8218 51.9167C56.889 53.3385 57.6 55.1161 57.6 56.8948C57.9552 63.2943 57.9552 68.2724 57.9552 71.1161V71.8281C57.9552 91.7385 57.6 92.0937 37.3338 92.0937C17.4218 92.0937 17.0666 92.0937 17.0666 71.8281V69.3385C17.0666 52.6276 17.0666 49.7828 28.7994 49.4271C28.089 46.5833 28.089 43.3828 28.089 40.5388V35.2055C0.000488281 37.6948 0.000488281 60.0937 0.000488281 67.9167V73.6057C0.000488281 81.7828 0.000488281 106.672 33.4224 106.672H40.1781C70.4 106.672 73.6 86.4052 73.9552 76.4495Z" fill="#056BE4"></path> <path d="M15.4656 129.429H0.771362V125.606H34.5803V129.429H19.886V167.42H15.4656V129.429Z" fill="#F3F4F6"></path> <path d="M48.4084 137.374C50.3792 136.299 52.8182 135.76 55.7254 135.76V139.883L54.7098 139.823C51.4046 139.823 48.8161 140.839 46.9448 142.868C45.0724 144.9 44.1374 147.748 44.1374 151.411V167.42H39.8964V136H43.9578V142.152C44.9536 140.042 46.4369 138.45 48.4084 137.374Z" fill="#F3F4F6"></path> <path d="M78.962 162.731C80.6735 161.636 81.9479 160.052 82.785 157.981V152.844H72.9287C67.5531 152.844 64.8646 154.716 64.8646 158.46C64.8646 160.292 65.5609 161.736 66.9552 162.791C68.3484 163.845 70.3006 164.372 72.8094 164.372C75.1989 164.372 77.249 163.826 78.962 162.731ZM83.7407 138.838C85.9303 140.888 87.0255 143.924 87.0255 147.947V167.42H82.964V162.521C82.0084 164.155 80.6042 165.428 78.7531 166.344C76.9016 167.26 74.7 167.717 72.1521 167.717C68.6473 167.717 65.8593 166.881 63.7896 165.21C61.7183 163.536 60.6833 161.327 60.6833 158.579C60.6833 155.912 61.6484 153.76 63.5803 152.128C65.5115 150.495 68.5875 149.679 72.8094 149.679H82.785V147.767C82.785 145.06 82.0276 142.999 80.5145 141.586C79.0011 140.172 76.7907 139.464 73.8844 139.464C71.8927 139.464 69.9812 139.793 68.15 140.45C66.3183 141.107 64.7454 142.014 63.4312 143.168L61.5198 140.002C63.1115 138.648 65.024 137.603 67.2541 136.867C69.4839 136.13 71.8328 135.76 74.3027 135.76C78.4036 135.76 81.5495 136.787 83.7407 138.838Z" fill="#F3F4F6"></path> <path d="M117.459 162.431C119.232 161.417 120.625 159.974 121.641 158.1C122.657 156.229 123.165 154.099 123.165 151.71C123.165 149.32 122.657 147.191 121.641 145.317C120.625 143.447 119.232 142.003 117.459 140.987C115.687 139.972 113.706 139.464 111.516 139.464C109.287 139.464 107.285 139.972 105.514 140.987C103.741 142.003 102.347 143.447 101.332 145.317C100.316 147.191 99.8088 149.32 99.8088 151.71C99.8088 154.099 100.316 156.229 101.332 158.1C102.347 159.974 103.741 161.417 105.514 162.431C107.285 163.447 109.287 163.955 111.516 163.955C113.706 163.955 115.687 163.447 117.459 162.431ZM127.347 123.098V167.42H123.284V161.207C122.008 163.317 120.326 164.931 118.237 166.045C116.146 167.16 113.787 167.717 111.159 167.717C108.211 167.717 105.543 167.042 103.154 165.688C100.765 164.333 98.8922 162.442 97.5386 160.012C96.1844 157.584 95.5084 154.815 95.5084 151.71C95.5084 148.603 96.1844 145.836 97.5386 143.407C98.8922 140.978 100.765 139.096 103.154 137.762C105.543 136.428 108.211 135.76 111.159 135.76C113.706 135.76 116.005 136.29 118.058 137.344C120.107 138.4 121.79 139.942 123.104 141.974V123.098H127.347Z" fill="#F3F4F6"></path> <path d="M139.172 136H143.413V167.42H139.172V136ZM139.112 128.234C138.515 127.637 138.216 126.921 138.216 126.083C138.216 125.288 138.515 124.59 139.112 123.994C139.709 123.396 140.445 123.098 141.321 123.098C142.199 123.098 142.935 123.387 143.533 123.964C144.129 124.541 144.429 125.228 144.429 126.024C144.429 126.901 144.129 127.637 143.533 128.234C142.935 128.832 142.199 129.131 141.321 129.131C140.445 129.131 139.709 128.832 139.112 128.234Z" fill="#F3F4F6"></path> <path d="M180.657 139.196C182.987 141.486 184.151 144.82 184.151 149.2V167.42H179.911V149.619C179.911 146.355 179.095 143.866 177.461 142.152C175.828 140.44 173.499 139.584 170.473 139.584C167.088 139.584 164.409 140.59 162.439 142.6C160.468 144.612 159.483 147.39 159.483 150.932V167.42H155.241V136H159.303V141.795C160.457 139.883 162.06 138.4 164.111 137.344C166.161 136.29 168.54 135.76 171.249 135.76C175.192 135.76 178.327 136.907 180.657 139.196Z" fill="#F3F4F6"></path> <path d="M214.972 160.997C216.803 160.023 218.228 158.659 219.243 156.907C220.259 155.155 220.765 153.164 220.765 150.932C220.765 148.703 220.259 146.721 219.243 144.989C218.228 143.256 216.813 141.904 215.003 140.926C213.188 139.952 211.128 139.464 208.819 139.464C206.549 139.464 204.509 139.942 202.696 140.897C200.884 141.854 199.471 143.207 198.456 144.96C197.44 146.712 196.932 148.703 196.932 150.932C196.932 153.164 197.44 155.155 198.456 156.907C199.471 158.659 200.884 160.023 202.696 160.997C204.509 161.975 206.549 162.461 208.819 162.461C211.089 162.461 213.14 161.975 214.972 160.997ZM224.888 136V163.596C224.888 168.932 223.583 172.885 220.975 175.454C218.367 178.023 214.435 179.307 209.179 179.307C206.271 179.307 203.512 178.877 200.904 178.023C198.296 177.165 196.176 175.98 194.543 174.468L196.693 171.243C198.207 172.595 200.048 173.65 202.219 174.408C204.389 175.164 206.669 175.543 209.059 175.543C213.04 175.543 215.967 174.617 217.84 172.765C219.711 170.914 220.647 168.036 220.647 164.135V160.132C219.332 162.124 217.609 163.637 215.48 164.672C213.348 165.707 210.989 166.224 208.401 166.224C205.455 166.224 202.776 165.579 200.367 164.284C197.956 162.989 196.067 161.177 194.692 158.848C193.319 156.519 192.631 153.88 192.631 150.932C192.631 147.987 193.319 145.359 194.692 143.048C196.067 140.74 197.948 138.947 200.337 137.672C202.727 136.399 205.415 135.76 208.401 135.76C211.068 135.76 213.479 136.299 215.628 137.373C217.78 138.449 219.512 140.001 220.825 142.033V136H224.888Z" fill="#F3F4F6"></path> <path d="M268.073 162.731C269.787 161.636 271.061 160.052 271.897 157.981V152.844H262.041C256.665 152.844 253.976 154.716 253.976 158.46C253.976 160.292 254.673 161.736 256.068 162.791C257.46 163.845 259.412 164.372 261.921 164.372C264.311 164.372 266.361 163.826 268.073 162.731ZM272.852 138.838C275.043 140.888 276.137 143.924 276.137 147.947V167.42H272.076V162.521C271.121 164.155 269.717 165.428 267.864 166.344C266.012 167.26 263.812 167.717 261.264 167.717C257.76 167.717 254.972 166.881 252.901 165.21C250.831 163.536 249.795 161.327 249.795 158.579C249.795 155.912 250.76 153.76 252.692 152.128C254.623 150.495 257.7 149.679 261.921 149.679H271.897V147.767C271.897 145.06 271.14 142.999 269.627 141.586C268.113 140.172 265.903 139.464 262.997 139.464C261.005 139.464 259.093 139.793 257.263 140.45C255.429 141.107 253.857 142.014 252.543 143.168L250.631 140.002C252.224 138.648 254.135 137.603 256.365 136.867C258.596 136.13 260.945 135.76 263.415 135.76C267.515 135.76 270.663 136.787 272.852 138.838Z" fill="#F3F4F6"></path> <path d="M313.083 139.196C315.412 141.486 316.576 144.82 316.576 149.2V167.42H312.336V149.619C312.336 146.355 311.519 143.866 309.887 142.152C308.253 140.44 305.924 139.584 302.899 139.584C299.512 139.584 296.835 140.59 294.864 142.6C292.893 144.612 291.907 147.39 291.907 150.932V167.42H287.667V136H291.728V141.795C292.883 139.883 294.485 138.4 296.536 137.344C298.587 136.29 300.965 135.76 303.675 135.76C307.617 135.76 310.752 136.907 313.083 139.196Z" fill="#F3F4F6"></path> <path d="M347.011 162.431C348.783 161.417 350.177 159.974 351.192 158.1C352.208 156.229 352.715 154.099 352.715 151.71C352.715 149.32 352.208 147.191 351.192 145.317C350.177 143.447 348.783 142.003 347.011 140.987C345.237 139.972 343.256 139.464 341.068 139.464C338.837 139.464 336.836 139.972 335.064 140.987C333.291 142.003 331.899 143.447 330.883 145.317C329.867 147.191 329.359 149.32 329.359 151.71C329.359 154.099 329.867 156.229 330.883 158.1C331.899 159.974 333.291 161.417 335.064 162.431C336.836 163.447 338.837 163.955 341.068 163.955C343.256 163.955 345.237 163.447 347.011 162.431ZM356.897 123.098V167.42H352.835V161.207C351.56 163.317 349.877 164.931 347.788 166.045C345.696 167.16 343.337 167.717 340.709 167.717C337.761 167.717 335.093 167.042 332.704 165.688C330.315 164.333 328.443 162.442 327.089 160.012C325.735 157.584 325.059 154.815 325.059 151.71C325.059 148.603 325.735 145.836 327.089 143.407C328.443 140.978 330.315 139.096 332.704 137.762C335.093 136.428 337.761 135.76 340.709 135.76C343.256 135.76 345.557 136.29 347.608 137.344C349.659 138.4 351.341 139.942 352.656 141.974V123.098H356.897Z" fill="#F3F4F6"></path> <path d="M392.885 137.374C394.856 136.299 397.295 135.76 400.203 135.76V139.883L399.187 139.823C395.881 139.823 393.292 140.839 391.421 142.868C389.549 144.9 388.615 147.748 388.615 151.411V167.42H384.373V136H388.435V142.152C389.429 140.042 390.913 138.45 392.885 137.374Z" fill="#F3F4F6"></path> <path d="M407.848 136H412.089V167.42H407.848V136ZM407.789 128.234C407.191 127.637 406.893 126.921 406.893 126.083C406.893 125.288 407.191 124.59 407.789 123.994C408.387 123.396 409.123 123.098 409.999 123.098C410.875 123.098 411.612 123.387 412.209 123.964C412.805 124.541 413.105 125.228 413.105 126.024C413.105 126.901 412.805 127.637 412.209 128.234C411.612 128.832 410.875 129.131 409.999 129.131C409.123 129.131 408.387 128.832 407.789 128.234Z" fill="#F3F4F6"></path> <path d="M425.02 166.614C422.691 165.876 420.869 164.951 419.556 163.835L421.467 160.49C422.781 161.527 424.433 162.372 426.424 163.029C428.415 163.687 430.487 164.015 432.636 164.015C435.504 164.015 437.624 163.567 438.999 162.671C440.372 161.775 441.06 160.511 441.06 158.878C441.06 157.723 440.68 156.816 439.924 156.16C439.168 155.503 438.212 155.005 437.057 154.667C435.901 154.328 434.369 154 432.457 153.681C429.908 153.203 427.857 152.716 426.305 152.217C424.752 151.72 423.428 150.874 422.333 149.679C421.236 148.484 420.689 146.832 420.689 144.72C420.689 142.092 421.785 139.942 423.976 138.269C426.165 136.596 429.212 135.76 433.115 135.76C435.145 135.76 437.177 136.031 439.208 136.567C441.237 137.104 442.911 137.812 444.225 138.688L442.373 142.092C439.785 140.302 436.699 139.405 433.115 139.405C430.405 139.405 428.365 139.883 426.992 140.839C425.619 141.795 424.932 143.048 424.932 144.602C424.932 145.796 425.32 146.752 426.096 147.469C426.872 148.186 427.839 148.714 428.993 149.051C430.148 149.391 431.74 149.739 433.772 150.096C436.281 150.575 438.291 151.052 439.804 151.531C441.317 152.008 442.613 152.824 443.687 153.979C444.763 155.135 445.3 156.727 445.3 158.757C445.3 161.505 444.155 163.687 441.865 165.299C439.575 166.912 436.401 167.717 432.339 167.717C429.789 167.717 427.349 167.351 425.02 166.614Z" fill="#F3F4F6"></path> <path d="M464.773 151.65L457.367 158.46V167.42H453.125V123.098H457.367V153.144L476.123 136H481.38L467.94 148.843L482.633 167.42H477.437L464.773 151.65Z" fill="#F3F4F6"></path> <path d="M505.78 166.614C503.451 165.876 501.628 164.951 500.315 163.835L502.227 160.49C503.54 161.527 505.192 162.372 507.183 163.029C509.175 163.687 511.245 164.015 513.396 164.015C516.263 164.015 518.384 163.567 519.757 162.671C521.131 161.775 521.819 160.511 521.819 158.878C521.819 157.723 521.44 156.816 520.683 156.16C519.927 155.503 518.971 155.005 517.816 154.667C516.661 154.328 515.128 154 513.217 153.681C510.668 153.203 508.617 152.716 507.065 152.217C505.512 151.72 504.187 150.874 503.092 149.679C501.996 148.484 501.449 146.832 501.449 144.72C501.449 142.092 502.544 139.942 504.735 138.269C506.924 136.596 509.971 135.76 513.873 135.76C515.904 135.76 517.936 136.031 519.967 136.567C521.997 137.104 523.671 137.812 524.984 138.688L523.132 142.092C520.544 140.302 517.457 139.405 513.873 139.405C511.165 139.405 509.124 139.883 507.751 140.839C506.377 141.795 505.691 143.048 505.691 144.602C505.691 145.796 506.079 146.752 506.855 147.469C507.631 148.186 508.597 148.714 509.752 149.051C510.907 149.391 512.5 149.739 514.531 150.096C517.04 150.575 519.051 151.052 520.564 151.531C522.076 152.008 523.372 152.824 524.447 153.979C525.521 155.135 526.06 156.727 526.06 158.757C526.06 161.505 524.913 163.687 522.624 165.299C520.335 166.912 517.16 167.717 513.097 167.717C510.548 167.717 508.109 167.351 505.78 166.614Z" fill="#F3F4F6"></path> <path d="M552.731 162.431C554.503 161.417 555.887 159.974 556.883 158.1C557.877 156.229 558.375 154.099 558.375 151.71C558.375 149.32 557.877 147.191 556.883 145.317C555.887 143.447 554.503 142.003 552.731 140.987C550.957 139.972 548.956 139.464 546.728 139.464C544.497 139.464 542.496 139.972 540.724 140.987C538.952 142.003 537.559 143.447 536.543 145.317C535.527 147.191 535.019 149.32 535.019 151.71C535.019 154.099 535.527 156.229 536.543 158.1C537.559 159.974 538.952 161.417 540.724 162.431C542.496 163.447 544.497 163.955 546.728 163.955C548.956 163.955 550.957 163.447 552.731 162.431ZM538.544 165.657C536.115 164.284 534.203 162.381 532.809 159.954C531.415 157.524 530.719 154.776 530.719 151.71C530.719 148.644 531.415 145.896 532.809 143.467C534.203 141.038 536.115 139.145 538.544 137.792C540.972 136.439 543.7 135.76 546.728 135.76C549.753 135.76 552.481 136.439 554.911 137.792C557.34 139.145 559.241 141.038 560.616 143.467C561.989 145.896 562.676 148.644 562.676 151.71C562.676 154.776 561.989 157.524 560.616 159.954C559.241 162.381 557.34 164.284 554.911 165.657C552.481 167.032 549.753 167.717 546.728 167.717C543.7 167.717 540.972 167.032 538.544 165.657Z" fill="#F3F4F6"></path> <path d="M577.579 127.877C576.643 128.871 576.176 130.345 576.176 132.296V136H585.851V139.584H576.293V167.42H572.053V139.584H566.439V136H572.053V132.117C572.053 129.25 572.88 126.98 574.532 125.308C576.184 123.634 578.524 122.798 581.551 122.798C582.745 122.798 583.9 122.969 585.015 123.306C586.129 123.645 587.067 124.133 587.823 124.77L586.389 127.936C585.155 126.901 583.601 126.383 581.731 126.383C579.899 126.383 578.513 126.882 577.579 127.877Z" fill="#F3F4F6"></path> <path d="M608.131 165.508C607.335 166.224 606.348 166.772 605.175 167.151C604 167.529 602.775 167.717 601.501 167.717C598.553 167.717 596.284 166.923 594.691 165.328C593.099 163.738 592.301 161.486 592.301 158.579V139.584H586.687V136H592.301V129.131H596.543V136H606.1V139.584H596.543V158.34C596.543 160.212 597.011 161.636 597.947 162.611C598.883 163.588 600.227 164.075 601.979 164.075C602.853 164.075 603.7 163.935 604.517 163.656C605.333 163.378 606.04 162.979 606.637 162.462L608.131 165.508Z" fill="#F3F4F6"></path> <path d="M661.353 136L649.467 167.42H645.464L635.549 141.675L625.633 167.42H621.631L609.804 136H613.867L623.723 162.7L633.817 136H637.46L647.496 162.7L657.471 136H661.353Z" fill="#F3F4F6"></path> <path d="M682.44 162.731C684.152 161.636 685.427 160.052 686.263 157.981V152.844H676.407C671.031 152.844 668.343 154.716 668.343 158.46C668.343 160.292 669.039 161.736 670.433 162.791C671.827 163.845 673.779 164.372 676.288 164.372C678.677 164.372 680.728 163.826 682.44 162.731ZM687.219 138.838C689.408 140.888 690.504 143.924 690.504 147.947V167.42H686.443V162.521C685.487 164.155 684.083 165.428 682.231 166.344C680.379 167.26 678.179 167.717 675.629 167.717C672.125 167.717 669.339 166.881 667.268 165.21C665.196 163.536 664.161 161.327 664.161 158.579C664.161 155.912 665.125 153.76 667.059 152.128C668.989 150.495 672.067 149.679 676.288 149.679H686.263V147.767C686.263 145.06 685.507 142.999 683.993 141.586C682.479 140.172 680.269 139.464 677.363 139.464C675.371 139.464 673.459 139.793 671.628 140.45C669.795 141.107 668.224 142.014 666.908 143.168L664.997 140.002C666.589 138.648 668.501 137.603 670.732 136.867C672.961 136.13 675.311 135.76 677.781 135.76C681.881 135.76 685.028 136.787 687.219 138.838Z" fill="#F3F4F6"></path> <path d="M710.545 137.374C712.516 136.299 714.955 135.76 717.863 135.76V139.883L716.847 139.823C713.541 139.823 710.953 140.839 709.081 142.868C707.209 144.9 706.275 147.748 706.275 151.411V167.42H702.033V136H706.095V142.152C707.089 140.042 708.573 138.45 710.545 137.374Z" fill="#F3F4F6"></path> <path d="M729.778 142.302C727.728 144.233 726.562 146.752 726.284 149.859H748.565C748.287 146.752 747.121 144.233 745.069 142.302C743.019 140.369 740.46 139.405 737.394 139.405C734.368 139.405 731.829 140.369 729.778 142.302ZM752.565 153.024H726.284C726.522 156.29 727.777 158.928 730.048 160.939C732.317 162.95 735.184 163.955 738.649 163.955C740.6 163.955 742.392 163.607 744.024 162.91C745.657 162.214 747.071 161.188 748.265 159.833L750.655 162.581C749.261 164.255 747.518 165.529 745.428 166.404C743.338 167.28 741.039 167.717 738.529 167.717C735.304 167.717 732.447 167.032 729.957 165.657C727.468 164.284 725.527 162.381 724.133 159.954C722.739 157.524 722.042 154.776 722.042 151.71C722.042 148.644 722.709 145.896 724.044 143.467C725.377 141.038 727.209 139.145 729.54 137.792C731.869 136.439 734.486 135.76 737.394 135.76C740.3 135.76 742.909 136.439 745.22 137.792C747.528 139.145 749.341 141.028 750.655 143.436C751.969 145.847 752.625 148.603 752.625 151.71L752.565 153.024Z" fill="#F3F4F6"></path> </g> <defs> <clipPath id="clip0_352_485"> <rect width="753.427" height="179.307" fill="white"></rect> </clipPath> </defs> </svg> 