<?xml version="1.0" encoding="UTF-8"?> <svg xmlns="http://www.w3.org/2000/svg" xmlns:xlink="http://www.w3.org/1999/xlink" width="653px" height="181px" viewBox="0 0 653 181"> <!-- Generator: Sketch 58 (84663) - https://sketch.com --> <title>SigmaSoftwareLogog/mainNegative</title> <desc>Created with Sketch.</desc> <defs> <linearGradient x1="0%" y1="50%" x2="70.3202603%" y2="50%" id="linearGradient-1"> <stop stop-color="#E11F27" offset="0%"></stop> <stop stop-color="#EE2A24" offset="100%"></stop> </linearGradient> <linearGradient x1="33.8489934%" y1="40.1141467%" x2="59.289412%" y2="61.3827441%" id="linearGradient-2"> <stop stop-color="#FFFFFF" stop-opacity="0" offset="0%"></stop> <stop stop-color="#FFFFFF" offset="100%"></stop> </linearGradient> <path d="M62.194,116.389 C70.74,117.253 79.844,117.721 89.29,117.721 L89.29,117.721 C138.604,117.721 178.579,104.991 178.579,89.29 L178.579,89.29 C178.579,76.594 152.454,65.844 116.389,62.19 L116.389,62.19 L62.194,116.389 Z" id="path-3"></path> </defs> <g id="sigma-software-logos" stroke="none" stroke-width="1" fill="none" fill-rule="evenodd"> <g id="sigma-software-main-negative"> <g id="SigmaSoftware/main/Negative"> <g id="sigma-text" transform="translate(212.000000, 51.000000)" fill="#FFFFFF"> <path d="M4.1294,76.8443 L61.8254,76.8443 C74.1124,76.8443 84.1114,67.4483 84.1114,55.9023 L84.1114,51.9713 C84.1114,40.6353 74.6704,31.4413 62.6184,31.0463 L62.2154,31.0133 L23.2304,31.0133 C19.8474,31.0133 17.0974,28.4273 17.0974,25.2553 L17.0974,21.4693 C17.0974,18.2903 19.8474,15.7013 23.2304,15.7013 L79.7564,15.7013 L79.7564,0.5253 L23.2304,0.5253 C10.9434,0.5253 0.9464,9.9163 0.9464,21.4693 L0.9464,25.2553 C0.9464,36.8043 10.9434,46.2023 23.2304,46.2023 L61.8254,46.2023 C65.2074,46.2103 67.9544,48.7983 67.9544,51.9713 L67.9544,55.9023 C67.9544,59.0703 65.2034,61.6583 61.8254,61.6583 L4.1294,61.6583 L4.1294,76.8443 Z" id="Fill-1"></path> <polygon id="Fill-3" points="103.2456 76.8346 119.3976 76.8346 119.3976 0.5296 103.2486 0.5296"></polygon> <path d="M329.1943,76.8072 L345.3523,76.8072 L345.3553,21.4922 C345.3553,9.9392 335.3583,0.5432 323.0673,0.5432 L242.5743,0.5432 L242.5743,76.8072 L258.6303,76.8072 L258.6303,15.7302 L285.5253,15.7302 L285.5453,76.8072 L301.6683,76.8072 L301.6683,15.7302 L323.0673,15.7302 C326.4533,15.7302 329.2043,18.3192 329.2043,21.4952 L329.1943,76.8072 Z" id="Fill-5"></path> <path d="M424.3701,61.6246 L424.3601,61.6246 L383.6861,61.6246 C380.3031,61.6246 377.5471,59.0406 377.5471,55.8546 L377.5471,51.9716 C377.5471,48.7926 380.3031,46.2046 383.6861,46.2046 L424.3911,46.2046 L424.3701,61.6246 Z M440.5591,21.4696 C440.5591,9.9236 430.5571,0.5246 418.2661,0.5246 L366.9661,0.5246 L366.9661,15.7106 L418.2661,15.7106 C421.6571,15.7106 424.4061,18.3006 424.4061,21.4746 L424.4031,31.0186 L383.6861,31.0186 C371.3991,31.0186 361.4061,40.4206 361.4061,51.9716 L361.4061,55.8546 C361.4061,67.4126 371.3991,76.8076 383.6861,76.8076 L440.4961,76.8076 L440.5591,21.4696 Z" id="Fill-7"></path> <path d="M141.1728,55.9093 C141.1728,67.4573 151.1618,76.8583 163.4538,76.8583 L220.3328,76.8583 L220.3328,31.0713 L177.8318,31.0713 L177.8318,46.2553 L204.0898,46.2553 L204.0898,61.6733 L163.4538,61.6733 C160.0698,61.6733 157.3118,59.0843 157.3118,55.9093 L157.2978,21.4953 C157.2978,18.3193 160.0558,15.7303 163.4398,15.7303 L220.1758,15.7303 L220.1758,0.5433 L163.4398,0.5433 C151.1478,0.5433 141.1558,9.9393 141.1558,21.4953 L141.1728,55.9093 Z" id="Fill-9"></path> </g> <g id="sigma-symbol"> <path d="M89.289,0 C76.594,0 65.845,26.1284392 62.19,62.1910454 L62.19,62.1910454 C26.126,65.8451068 0,76.5952875 0,89.2915009 L0,89.2915009 C0,101.985714 26.126,112.735895 62.19,116.390956 L62.19,116.390956 C65.845,152.452563 76.594,178.580002 89.289,178.580002 L89.289,178.580002 C104.992,178.580002 117.723,138.60233 117.723,89.2905009 L117.723,89.2905009 C117.723,39.976672 104.992,0 89.289,0 Z" id="Fill-12" fill="url(#linearGradient-1)"></path> <mask id="mask-4" fill="white"> <use xlink:href="#path-3"></use> </mask> <use id="Clip-16" fill="url(#linearGradient-2)" xlink:href="#path-3"></use> <path d="M62.2002,116.3898 L116.3952,62.1898 C107.8502,61.3248 98.7452,60.8558 89.2982,60.8558 C79.8502,60.8558 70.7442,61.3248 62.1982,62.1898 C61.3322,70.7358 60.8642,79.8408 60.8642,89.2888 C60.8642,98.7368 61.3322,107.8408 62.1982,116.3898 L62.2002,116.3898 Z" id="Fill-20" fill="#B32317"></path> </g> <g id="software-text" transform="translate(218.000000, 151.000000)" fill="#FFFFFF"> <path d="M0.0889,28.4752 L0.0889,25.3602 L0.3929,25.3602 C1.8369,25.7782 5.2939,26.5382 7.4979,26.5382 L8.6749,26.5382 C12.2469,26.5382 14.6409,25.2072 14.6409,21.6362 C14.6409,18.5212 13.0449,17.5712 10.4609,16.8872 L6.6239,15.8612 C3.8879,15.1012 0.3929,13.3162 0.3929,8.2622 C0.3929,3.6642 3.9259,0.5492 9.5879,0.5492 L10.4609,0.5492 C12.5509,0.5492 15.8179,1.1582 16.9959,1.7272 L16.9959,4.7292 L16.6929,4.7292 C15.3239,4.2732 12.3989,3.6642 10.4609,3.6642 L9.5879,3.6642 C6.0159,3.6642 3.9259,4.9952 3.9259,8.2622 C3.9259,11.2262 5.8259,12.0242 8.1059,12.7072 L11.7909,13.7712 C14.7169,14.6072 18.1739,16.1272 18.1739,21.6362 C18.1739,26.5382 14.6409,29.6532 8.6749,29.6532 L7.4979,29.6532 C5.1419,29.6532 1.2669,28.8932 0.0889,28.4752" id="Fill-22"></path> <path d="M38.3144,18.6725 C38.3144,14.0755 36.9844,11.2265 32.5394,11.2265 C28.0934,11.2265 26.7644,14.0755 26.7644,18.6725 C26.7644,23.2705 28.0934,26.6905 32.5394,26.6905 C36.9844,26.6905 38.3144,23.2705 38.3144,18.6725 M23.4964,18.6725 C23.4964,12.4425 26.4604,8.2625 32.5394,8.2625 C38.9224,8.2625 41.5814,12.4425 41.5814,18.6725 C41.5814,25.4745 38.6184,29.6525 32.5394,29.6525 C26.1564,29.6525 23.4964,25.4745 23.4964,18.6725" id="Fill-25"></path> <path d="M49.2602,11.5299 L45.9922,11.5299 L45.9922,8.5659 L49.2602,8.5659 L49.2602,7.6919 C49.2602,3.2089 51.9582,0.8529 56.0992,0.8529 L58.4552,0.8529 L58.4552,3.8169 L56.0992,3.8169 C53.4392,3.8169 52.5282,4.9949 52.5282,7.6919 L52.5282,8.5659 L57.8852,8.5659 L57.8852,11.5299 L52.5282,11.5299 L52.5282,29.3489 L49.2602,29.3489 L49.2602,11.5299 Z" id="Fill-27"></path> <path d="M71.5874,29.3492 C67.1424,29.3492 64.4444,27.2592 64.4444,22.2062 L64.4444,11.5302 L61.1764,11.5302 L61.1764,8.5662 L64.4444,8.5662 L64.4444,3.8172 L67.7124,3.8172 L67.7124,8.5662 L73.6394,8.5662 L73.6394,11.5302 L67.7124,11.5302 L67.7124,21.6362 C67.7124,25.4742 68.8894,26.3852 72.1574,26.3852 L74.2474,26.3852 L74.2474,29.3492 L71.5874,29.3492 Z" id="Fill-29"></path> <path d="M78.6567,13.9234 L78.6567,8.5664 L81.9247,8.5664 L81.9247,13.9234 C81.9247,19.8504 83.8237,24.7514 85.6097,26.9554 C87.3957,24.7514 89.3327,19.8504 89.3327,13.9234 L89.3327,8.5664 L92.6007,8.5664 L92.6007,13.9234 C92.6007,19.8504 94.5377,24.7514 96.3237,26.9554 C98.0717,24.7514 100.0097,19.8504 100.0097,13.9234 L100.0097,8.5664 L103.2767,8.5664 L103.2767,13.9234 C103.2767,21.0284 100.3137,27.2594 98.2237,29.3494 L94.6907,29.3494 C93.6267,28.1714 91.4227,24.4474 90.9667,22.2064 C90.5107,24.4474 88.3067,28.1714 87.2427,29.3494 L83.7097,29.3494 C81.6197,27.2594 78.6567,21.0284 78.6567,13.9234" id="Fill-31"></path> <path d="M122.0888,22.2066 L122.0888,11.5296 L119.7338,11.5296 C115.2498,11.5296 112.0198,14.4936 112.0198,19.2426 L112.0198,22.5106 C112.0198,25.7776 113.5018,26.6896 115.2498,26.6896 C117.3398,26.6896 119.7338,24.6006 120.9108,23.4226 L122.0888,22.2066 Z M108.7528,22.5106 L108.7528,19.2426 C108.7528,12.7076 114.0718,8.5656 119.7338,8.5656 L125.3568,8.5656 L125.3568,29.3496 L122.0888,29.3496 L122.0888,25.4746 L120.6068,26.9556 C119.0868,28.4366 117.3398,29.6526 114.6798,29.6526 C111.4118,29.6526 108.7528,27.5626 108.7528,22.5106 L108.7528,22.5106 Z" id="Fill-33"></path> <path d="M133.6416,8.566 L136.9096,8.566 L136.9096,13.164 L137.2136,12.708 C138.7716,10.314 140.5946,8.566 143.2926,8.566 L144.6216,8.566 L144.6216,12.137 L143.1406,12.137 C141.6596,12.137 140.2146,12.708 139.2656,13.62 L136.9096,15.975 L136.9096,29.349 L133.6416,29.349 L133.6416,8.566 Z" id="Fill-35"></path> <path d="M151.8437,17.4566 L157.1627,17.4566 C160.4297,17.4566 161.3417,16.2786 161.3417,14.2276 C161.3417,11.9856 159.8227,11.2266 157.4667,11.2266 C153.8957,11.2266 151.8437,13.0116 151.8437,17.1906 L151.8437,17.4566 Z M148.5757,21.3326 L148.5757,17.1906 C148.5757,11.5296 152.4127,8.2626 157.4667,8.2626 C161.6087,8.2626 164.5717,10.0486 164.5717,14.2276 C164.5717,17.9126 162.2157,20.1546 158.0737,20.1546 L151.8437,20.1546 L151.8437,21.3326 C151.8437,25.2076 154.1987,26.6896 157.4667,26.6896 C159.8227,26.6896 162.2157,25.7776 163.0897,25.3596 L163.3937,25.3596 L163.3937,28.3236 C162.5197,28.7416 159.8227,29.6526 157.4667,29.6526 C152.4127,29.6526 148.5757,27.2596 148.5757,21.3326 L148.5757,21.3326 Z" id="Fill-37"></path> </g> </g> </g> </g> </svg> 